<?xml version="1.0" encoding="UTF-8"?>
<!DOCTYPE svg PUBLIC "-//W3C//DTD SVG 1.1//EN" "http://www.w3.org/Graphics/SVG/1.1/DTD/svg11.dtd">
<!-- Creator: CorelDRAW -->
<svg xmlns="http://www.w3.org/2000/svg" xml:space="preserve" width="215.9mm" height="279.4mm" version="1.1" style="shape-rendering:geometricPrecision; text-rendering:geometricPrecision; image-rendering:optimizeQuality; fill-rule:evenodd; clip-rule:evenodd"
viewBox="0 0 21590 27940"
 xmlns:xlink="http://www.w3.org/1999/xlink"
 xmlns:xodm="http://www.corel.com/coreldraw/odm/2003">
 <defs>
  <style type="text/css">
   <![CDATA[
    .str0 {stroke:#373535;stroke-width:20;stroke-miterlimit:22.9256}
    .fil0 {fill:black}
    .fil1 {fill:white}
   ]]>
  </style>
 </defs>
 <g id="Layer_x0020_1">
  <metadata id="CorelCorpID_0Corel-Layer"/>
  <rect class="fil0 str0" x="1026.1" y="1031.49" width="982.1" height="982.1" rx="120.25" ry="120.25"/>
  <g id="_105553290535648">
   <rect class="fil1" transform="matrix(0.265969 0.131548 -1.04811E-001 0.21191 1194.29 1271.35)" width="247.7" height="866.95" rx="123.85" ry="123.85"/>
   <path class="fil1" d="M1564.08 1789.9l0 0c0,-20.21 16.54,-36.75 36.75,-36.75l222.13 0 -205.21 -414.89 -230.95 466.95c-8.96,18.11 -31.11,25.6 -49.23,16.64l0 0c-18.12,-8.96 -25.61,-31.11 -16.65,-49.23l262.53 -530.79c3.21,-8.26 9.38,-15.39 17.91,-19.6l0 -0.01c5.15,-2.54 10.63,-3.76 16.03,-3.78l0.72 0c5.41,0.02 10.88,1.23 16.03,3.78l0.01 0.01c8.52,4.21 14.69,11.34 17.9,19.6l262.53 530.79c8.96,18.12 1.47,40.27 -16.64,49.23l-0.01 0c-4.07,2.01 -8.34,3.2 -12.62,3.61 -2.96,0.78 -6.05,1.19 -9.24,1.19l-275.24 0c-20.21,0 -36.75,-16.54 -36.75,-36.75z"/>
   <rect class="fil1" transform="matrix(0.265969 0.131548 -2.41053E-001 0.487369 1378.97 1231.77)" width="247.7" height="866.95" rx="123.85" ry="123.85"/>
  </g>
 </g>
</svg>
